<svg id="svg" version="1.1" xmlns="http://www.w3.org/2000/svg" xmlns:xlink="http://www.w3.org/1999/xlink" width="400" height="120" viewBox="0, 0, 400,120"><path id="path" d="M174.417 8.178 C 169.815 8.277,163.531 8.541,160.833 8.748 C 160.146 8.801,155.683 8.911,150.917 8.993 C 146.150 9.075,141.237 9.223,140.000 9.322 C 136.538 9.600,132.100 9.821,126.250 10.006 C 123.317 10.098,120.317 10.246,119.583 10.334 C 117.669 10.563,114.462 10.791,110.250 10.998 C 108.233 11.097,106.096 11.251,105.500 11.341 C 104.904 11.430,103.067 11.578,101.417 11.669 C 99.767 11.760,97.329 11.948,96.000 12.086 C 94.671 12.224,92.458 12.406,91.083 12.491 C 89.708 12.576,88.195 12.722,87.720 12.816 C 87.246 12.910,85.521 13.068,83.887 13.167 C 82.253 13.266,79.979 13.491,78.833 13.666 C 77.688 13.842,75.813 14.031,74.667 14.087 C 73.521 14.143,71.983 14.300,71.250 14.436 C 70.517 14.571,69.542 14.750,69.083 14.832 C 68.625 14.914,67.387 15.032,66.333 15.094 C 65.279 15.157,64.229 15.279,64.000 15.366 C 63.323 15.623,62.052 15.827,60.031 16.005 C 58.987 16.096,57.485 16.349,56.692 16.567 C 55.771 16.820,54.582 16.995,53.402 17.052 C 52.265 17.106,51.111 17.272,50.402 17.483 C 49.768 17.672,48.533 17.896,47.658 17.982 C 46.782 18.068,45.694 18.257,45.241 18.401 C 44.788 18.545,43.479 18.809,42.333 18.988 C 41.188 19.167,39.837 19.398,39.333 19.503 C 38.829 19.607,37.442 19.876,36.250 20.101 C 35.058 20.326,33.746 20.587,33.333 20.680 C 32.921 20.774,31.946 20.962,31.167 21.098 C 30.387 21.234,29.165 21.531,28.450 21.756 C 27.735 21.982,26.960 22.167,26.728 22.167 C 26.496 22.167,25.844 22.347,25.278 22.568 C 24.713 22.789,23.801 23.021,23.253 23.085 C 22.704 23.148,21.917 23.371,21.503 23.580 C 21.089 23.788,20.487 24.014,20.167 24.081 C 19.846 24.148,19.331 24.356,19.023 24.543 C 18.715 24.730,18.126 24.946,17.714 25.023 C 16.958 25.164,15.046 25.983,13.583 26.792 C 13.400 26.893,12.537 27.323,11.667 27.747 C 7.640 29.707,5.585 31.341,4.785 33.219 L 4.417 34.083 4.417 61.500 L 4.417 88.917 4.833 89.745 C 5.251 90.576,7.550 93.000,7.920 93.000 C 8.028 93.000,8.427 93.225,8.807 93.500 C 9.187 93.775,9.537 94.000,9.586 94.000 C 9.636 94.000,10.447 94.450,11.390 95.000 C 12.333 95.550,13.204 96.000,13.325 96.000 C 13.447 96.000,13.912 96.225,14.359 96.500 C 14.806 96.775,15.266 97.000,15.380 97.000 C 15.495 97.000,15.865 97.187,16.202 97.416 C 16.539 97.646,17.213 97.915,17.699 98.016 C 18.185 98.117,18.733 98.293,18.917 98.406 C 19.100 98.520,19.775 98.750,20.417 98.917 C 21.058 99.084,21.786 99.322,22.033 99.444 C 22.281 99.567,22.701 99.667,22.967 99.667 C 23.233 99.667,23.668 99.732,23.933 99.813 C 25.228 100.204,27.091 100.695,28.750 101.083 C 29.758 101.318,31.033 101.622,31.583 101.758 C 32.133 101.894,33.146 102.078,33.833 102.167 C 34.521 102.255,35.496 102.449,36.000 102.596 C 36.504 102.744,37.367 102.931,37.917 103.012 C 39.233 103.205,40.359 103.428,41.583 103.737 C 42.133 103.876,43.108 104.058,43.750 104.142 C 44.392 104.226,45.254 104.423,45.667 104.580 C 46.079 104.738,47.092 104.927,47.917 105.002 C 48.742 105.076,50.129 105.322,51.000 105.547 C 51.969 105.798,53.342 106.000,54.537 106.068 C 55.611 106.130,56.745 106.286,57.055 106.416 C 57.366 106.545,58.474 106.734,59.518 106.835 C 60.562 106.936,61.942 107.093,62.583 107.185 C 69.227 108.135,72.564 108.518,79.000 109.070 C 83.009 109.413,85.305 109.652,86.495 109.850 C 86.996 109.934,88.496 110.045,89.828 110.098 C 91.160 110.151,93.525 110.371,95.083 110.587 C 96.642 110.803,99.079 111.026,100.500 111.082 C 102.848 111.176,105.214 111.382,109.178 111.836 C 109.963 111.926,111.501 112.004,112.595 112.009 C 113.688 112.015,115.783 112.124,117.250 112.253 C 124.111 112.855,126.104 112.974,131.000 113.074 C 133.887 113.133,137.412 113.288,138.833 113.419 C 143.014 113.804,147.421 113.978,155.750 114.090 C 160.058 114.148,164.858 114.265,166.417 114.351 C 178.127 114.997,219.841 114.994,232.000 114.346 C 233.512 114.265,238.575 114.150,243.250 114.090 C 248.930 114.016,253.188 113.875,256.083 113.663 C 262.237 113.213,263.281 113.160,269.250 112.994 C 274.859 112.837,278.552 112.608,279.875 112.334 C 280.311 112.244,282.186 112.131,284.042 112.082 C 287.439 111.994,290.471 111.768,292.167 111.479 C 292.671 111.392,294.621 111.247,296.500 111.157 C 298.379 111.066,301.042 110.836,302.417 110.647 C 303.792 110.457,306.232 110.241,307.839 110.167 C 309.447 110.093,311.547 109.913,312.506 109.769 C 313.465 109.624,315.262 109.427,316.500 109.331 C 317.737 109.235,319.425 109.086,320.250 109.001 C 321.075 108.916,322.725 108.768,323.917 108.671 C 325.108 108.575,326.383 108.425,326.750 108.338 C 327.117 108.251,328.729 108.059,330.333 107.912 C 331.938 107.765,333.625 107.543,334.083 107.418 C 334.542 107.292,335.517 107.144,336.250 107.089 C 338.402 106.925,340.368 106.639,341.083 106.384 C 341.450 106.253,342.768 106.081,344.012 106.002 C 345.532 105.904,346.613 105.743,347.304 105.510 C 347.870 105.319,349.027 105.116,349.875 105.059 C 350.858 104.992,351.800 104.812,352.474 104.562 C 353.083 104.336,354.215 104.105,355.141 104.018 C 356.026 103.934,357.200 103.715,357.750 103.531 C 358.300 103.347,359.275 103.147,359.917 103.086 C 360.558 103.025,361.646 102.799,362.333 102.584 C 363.021 102.369,364.130 102.145,364.797 102.086 C 365.465 102.027,366.241 101.899,366.522 101.801 C 366.803 101.703,367.832 101.443,368.808 101.224 C 369.784 101.004,370.996 100.718,371.500 100.587 C 372.004 100.457,373.092 100.194,373.917 100.003 C 375.610 99.611,378.538 98.714,379.167 98.395 C 379.396 98.278,380.033 98.060,380.583 97.910 C 381.133 97.760,381.696 97.538,381.833 97.417 C 381.971 97.296,382.392 97.115,382.770 97.015 C 383.148 96.914,383.650 96.680,383.887 96.493 C 384.124 96.307,384.565 96.070,384.867 95.967 C 385.169 95.864,385.678 95.604,385.997 95.390 C 386.316 95.175,386.659 95.000,386.759 95.000 C 386.859 95.000,387.825 94.475,388.906 93.833 C 391.870 92.072,393.448 90.407,393.827 88.639 C 394.211 86.854,393.988 34.063,393.593 33.250 C 392.871 31.761,390.021 29.397,387.257 27.993 C 386.978 27.851,386.525 27.615,386.250 27.468 C 385.975 27.321,385.225 26.961,384.583 26.668 C 383.942 26.375,382.886 25.880,382.238 25.567 C 381.589 25.255,380.930 25.000,380.774 25.000 C 380.617 25.000,380.131 24.819,379.694 24.597 C 379.256 24.375,378.602 24.140,378.241 24.074 C 377.879 24.008,377.227 23.776,376.792 23.558 C 376.341 23.332,375.554 23.121,374.959 23.067 C 374.386 23.016,373.504 22.799,373.000 22.586 C 372.496 22.373,371.671 22.147,371.167 22.085 C 370.662 22.022,369.739 21.790,369.115 21.569 C 368.491 21.348,367.740 21.167,367.447 21.167 C 367.154 21.167,366.652 21.089,366.332 20.994 C 365.816 20.842,362.015 20.067,359.750 19.652 C 359.292 19.569,358.542 19.427,358.083 19.338 C 357.625 19.249,356.427 19.055,355.421 18.906 C 354.415 18.758,353.394 18.534,353.151 18.409 C 352.908 18.283,351.931 18.107,350.980 18.017 C 350.028 17.927,348.704 17.698,348.037 17.508 C 347.370 17.318,345.983 17.092,344.954 17.006 C 342.911 16.835,341.492 16.597,341.024 16.346 C 340.860 16.258,339.718 16.109,338.487 16.014 C 337.257 15.920,335.800 15.724,335.250 15.579 C 334.700 15.434,333.087 15.212,331.667 15.085 C 330.246 14.958,328.408 14.706,327.583 14.525 C 326.758 14.345,324.771 14.115,323.167 14.016 C 321.563 13.917,319.837 13.762,319.333 13.672 C 318.829 13.581,316.903 13.395,315.053 13.259 C 313.202 13.122,311.190 12.930,310.580 12.833 C 309.970 12.735,308.447 12.586,307.194 12.502 C 305.941 12.417,303.679 12.230,302.167 12.085 C 300.654 11.940,298.329 11.752,297.000 11.666 C 295.671 11.580,293.908 11.437,293.083 11.348 C 292.258 11.258,290.046 11.107,288.167 11.010 C 283.864 10.790,280.347 10.542,278.417 10.322 C 277.592 10.228,274.479 10.079,271.500 9.990 C 264.766 9.788,260.602 9.583,258.333 9.340 C 257.371 9.237,252.721 9.079,248.000 8.988 C 243.279 8.897,237.054 8.709,234.167 8.569 C 223.515 8.054,190.246 7.836,174.417 8.178 M279.053 38.353 C 279.913 38.794,280.500 39.544,280.500 40.202 C 280.500 40.884,280.506 40.870,279.566 42.500 C 278.987 43.504,278.684 43.918,277.555 45.250 C 277.322 45.525,276.608 46.425,275.969 47.250 C 275.330 48.075,274.664 48.900,274.489 49.083 C 274.215 49.371,273.728 49.950,272.525 51.419 C 272.194 51.823,270.878 53.822,270.331 54.750 C 270.116 55.117,269.728 55.663,269.469 55.964 C 269.211 56.265,269.000 56.590,269.000 56.687 C 269.000 56.783,268.783 57.174,268.518 57.556 C 267.980 58.329,267.667 60.358,267.667 63.059 C 267.667 63.818,267.561 64.809,267.431 65.261 C 267.278 65.793,267.166 67.290,267.112 69.500 C 267.017 73.456,267.015 73.465,266.136 74.172 C 264.645 75.369,262.923 74.996,261.805 73.232 C 261.258 72.370,261.258 72.361,261.667 69.917 C 261.759 69.367,261.909 67.642,262.001 66.083 C 262.092 64.525,262.241 62.888,262.333 62.446 C 262.425 62.003,262.500 60.953,262.500 60.113 L 262.500 58.585 260.695 56.834 C 259.056 55.244,258.152 54.178,255.083 50.216 C 254.533 49.506,253.632 48.398,253.081 47.754 C 250.871 45.174,250.771 44.865,251.815 43.831 C 253.964 41.704,256.146 42.563,259.417 46.823 C 259.783 47.301,260.271 47.904,260.500 48.164 C 260.729 48.423,261.404 49.257,262.000 50.016 C 264.923 53.739,265.348 53.783,267.493 50.583 C 267.985 49.850,268.478 49.196,268.588 49.129 C 268.699 49.062,268.884 48.781,268.998 48.504 C 269.113 48.227,269.267 48.000,269.339 48.000 C 269.412 48.000,269.702 47.644,269.983 47.208 C 270.265 46.773,270.853 45.955,271.289 45.391 C 272.593 43.708,273.698 42.207,274.612 40.879 C 276.363 38.333,277.620 37.619,279.053 38.353 M160.521 40.771 C 160.876 41.117,161.167 41.468,161.167 41.549 C 161.167 41.631,161.317 41.888,161.500 42.121 C 161.931 42.669,161.935 43.722,161.513 45.253 C 161.336 45.893,161.143 46.979,161.083 47.667 C 161.023 48.354,160.800 49.554,160.588 50.333 C 160.377 51.112,160.156 52.139,160.097 52.615 C 160.039 53.091,159.887 53.730,159.759 54.036 C 159.632 54.341,159.407 55.227,159.259 56.004 C 159.112 56.781,158.918 57.642,158.828 57.917 C 158.141 60.016,157.829 62.429,158.198 62.798 C 158.421 63.021,159.000 62.618,159.000 62.240 C 159.000 62.125,159.244 61.726,159.542 61.353 C 159.840 60.980,160.308 60.371,160.583 59.999 C 160.858 59.628,161.161 59.233,161.255 59.120 C 161.350 59.008,161.605 58.654,161.822 58.333 C 163.717 55.533,167.433 53.165,169.590 53.384 C 171.345 53.562,172.694 55.296,172.920 57.667 C 173.015 58.660,173.402 61.085,173.864 63.583 C 174.219 65.504,174.964 66.112,176.237 65.519 C 176.611 65.345,177.127 65.154,177.384 65.096 C 177.641 65.037,178.158 64.767,178.534 64.495 C 178.909 64.223,179.289 64.000,179.377 64.000 C 179.572 64.000,179.770 63.841,183.667 60.569 C 186.802 57.937,187.993 56.697,187.998 56.064 C 188.000 55.735,188.267 55.315,189.083 54.359 C 191.243 51.826,193.836 54.141,192.599 57.496 C 191.021 61.778,190.588 65.053,191.416 66.453 C 192.040 67.511,193.304 67.943,194.300 67.439 C 194.547 67.314,195.125 67.123,195.584 67.015 C 196.570 66.784,196.882 66.558,198.930 64.592 C 201.796 61.842,202.869 59.817,203.085 56.750 C 203.193 55.226,203.523 54.000,203.826 54.000 C 203.892 54.000,204.028 53.821,204.128 53.601 C 204.532 52.716,206.131 52.305,207.152 52.826 C 208.308 53.415,208.598 54.683,208.131 57.103 C 207.915 58.223,207.765 60.057,207.664 62.833 C 207.354 71.378,206.667 74.576,204.159 79.155 C 203.812 79.788,203.708 79.907,202.014 81.600 C 198.314 85.300,191.242 85.595,187.368 82.212 C 187.028 81.916,186.706 81.672,186.652 81.670 C 186.188 81.655,186.001 79.316,186.419 78.763 C 187.409 77.456,188.595 77.539,190.360 79.038 C 190.879 79.479,191.554 79.925,191.860 80.029 C 192.166 80.133,192.641 80.374,192.916 80.566 C 193.799 81.182,195.572 81.158,196.584 80.517 C 197.032 80.232,197.479 80.000,197.577 80.000 C 198.694 80.000,200.936 76.237,201.500 73.417 C 201.610 72.867,201.805 72.007,201.933 71.507 C 202.259 70.238,202.243 68.267,201.905 67.929 C 201.602 67.625,201.397 67.712,200.466 68.537 C 199.296 69.573,197.169 70.937,196.488 71.086 C 196.232 71.142,195.941 71.286,195.842 71.407 C 195.166 72.221,190.199 72.236,188.985 71.427 C 186.939 70.064,186.310 68.845,186.158 65.946 C 185.999 62.923,185.958 62.903,184.021 64.921 C 180.422 68.673,178.032 70.026,174.815 70.134 C 171.559 70.243,169.508 68.617,169.074 65.583 C 169.008 65.125,168.891 64.580,168.814 64.372 C 168.736 64.165,168.598 63.203,168.506 62.235 C 168.172 58.710,167.547 58.223,165.808 60.137 C 164.012 62.113,163.000 63.307,163.000 63.450 C 163.000 63.539,162.775 63.812,162.500 64.057 C 162.225 64.302,162.000 64.591,162.000 64.699 C 162.000 64.807,161.836 65.070,161.636 65.283 C 161.436 65.496,161.117 65.926,160.928 66.238 C 158.133 70.847,156.073 73.000,154.457 73.000 C 152.029 73.000,151.536 72.002,152.152 68.333 C 152.626 65.510,152.235 65.072,150.653 66.654 C 150.077 67.230,149.337 67.871,149.009 68.078 C 148.680 68.285,148.310 68.577,148.185 68.727 C 148.061 68.877,147.873 69.000,147.768 69.000 C 147.663 69.000,147.316 69.177,146.997 69.393 C 144.448 71.120,139.492 71.713,137.868 70.485 C 136.451 69.413,136.115 68.884,135.580 66.881 C 135.526 66.678,135.565 65.447,135.668 64.145 C 135.900 61.218,135.847 60.923,135.117 61.066 C 134.513 61.185,132.801 62.904,131.923 64.273 C 131.585 64.800,131.418 65.008,130.723 65.763 C 130.463 66.046,130.042 66.577,129.788 66.944 C 129.534 67.311,129.189 67.759,129.021 67.939 C 128.854 68.119,128.431 68.675,128.082 69.175 C 127.733 69.674,127.399 70.121,127.340 70.167 C 127.281 70.212,127.051 70.550,126.830 70.917 C 126.608 71.283,126.294 71.729,126.130 71.906 C 125.967 72.084,125.833 72.284,125.833 72.351 C 125.833 73.394,122.444 73.492,121.587 72.474 C 120.975 71.747,120.969 68.449,121.576 65.930 C 122.096 63.774,122.360 59.391,121.984 59.153 C 121.618 58.921,121.421 58.969,120.901 59.417 C 119.680 60.468,117.824 61.003,114.755 61.187 C 113.194 61.281,111.753 61.390,111.553 61.429 C 111.150 61.508,110.942 62.085,110.338 64.807 C 110.002 66.321,109.456 67.356,108.213 68.839 C 107.453 69.744,104.093 72.000,103.504 72.000 C 103.399 72.000,102.886 72.206,102.365 72.458 C 101.468 72.892,101.290 72.917,99.064 72.917 L 96.711 72.917 95.958 72.250 C 95.211 71.588,94.309 70.053,94.098 69.083 C 93.747 67.477,93.119 67.225,91.913 68.206 C 91.548 68.503,91.175 68.801,91.083 68.867 C 90.992 68.934,90.654 69.198,90.333 69.455 C 89.551 70.080,87.923 71.167,87.768 71.167 C 87.700 71.167,87.406 71.345,87.114 71.564 C 86.822 71.783,86.396 72.017,86.167 72.086 C 85.938 72.154,85.542 72.357,85.287 72.537 C 85.032 72.716,84.545 72.936,84.204 73.025 C 83.862 73.115,83.343 73.298,83.049 73.432 C 79.929 74.855,73.825 73.338,73.068 70.952 C 73.004 70.749,72.787 70.321,72.587 70.000 C 71.701 68.579,71.615 61.161,72.473 60.113 C 72.562 60.005,72.788 59.445,72.977 58.869 C 73.165 58.293,73.460 57.618,73.632 57.369 C 73.805 57.120,73.994 56.784,74.052 56.622 C 74.527 55.307,77.060 52.534,78.663 51.576 C 80.093 50.720,82.961 50.588,84.042 51.329 C 85.966 52.646,86.795 56.190,85.631 58.119 C 85.421 58.466,85.101 59.050,84.919 59.417 C 84.548 60.165,80.683 64.064,79.136 65.251 C 76.763 67.072,76.580 67.552,77.878 68.543 C 78.646 69.128,79.722 69.391,80.833 69.265 C 81.857 69.148,84.492 68.529,84.750 68.344 C 84.842 68.278,85.292 68.085,85.750 67.916 C 86.208 67.746,87.020 67.339,87.553 67.012 C 88.086 66.685,88.758 66.287,89.046 66.129 C 89.657 65.793,90.230 65.343,91.222 64.417 C 91.615 64.050,92.375 63.375,92.911 62.917 C 94.846 61.262,95.940 59.976,96.917 58.207 C 97.100 57.875,97.438 57.396,97.667 57.141 C 97.896 56.887,98.308 56.416,98.583 56.096 C 101.060 53.210,104.200 51.784,105.860 52.793 C 106.166 52.979,106.679 53.184,107.000 53.248 C 107.795 53.409,108.805 54.012,109.503 54.744 C 109.822 55.078,110.446 55.723,110.889 56.176 L 111.694 57.000 113.222 56.995 C 114.257 56.992,115.126 56.880,115.917 56.650 C 116.558 56.462,117.683 56.212,118.417 56.094 C 119.150 55.977,120.087 55.752,120.500 55.595 C 120.912 55.438,121.700 55.236,122.250 55.145 C 122.800 55.055,123.578 54.789,123.979 54.555 C 125.438 53.701,126.662 54.149,127.425 55.815 L 127.852 56.747 127.509 58.448 C 127.321 59.384,127.167 60.327,127.167 60.544 C 127.167 60.761,127.018 61.497,126.837 62.178 C 126.656 62.859,126.506 63.497,126.504 63.596 C 126.497 63.905,127.499 63.648,127.769 63.272 C 128.404 62.384,129.487 60.952,130.250 59.993 C 135.960 52.811,141.865 52.126,141.023 58.744 C 140.918 59.572,140.788 61.712,140.735 63.500 L 140.638 66.750 141.048 67.244 L 141.459 67.739 142.938 67.265 C 144.342 66.815,145.854 65.995,146.325 65.427 C 146.444 65.284,146.627 65.167,146.732 65.167 C 146.914 65.167,148.125 64.245,148.984 63.453 C 150.080 62.442,153.167 58.200,153.167 57.705 C 153.167 57.624,153.349 57.387,153.572 57.178 C 153.815 56.949,154.019 56.521,154.082 56.107 C 154.140 55.727,154.366 54.817,154.583 54.083 C 154.858 53.157,155.012 52.114,155.087 50.667 C 155.146 49.521,155.293 48.283,155.415 47.917 C 155.730 46.962,155.974 45.601,156.078 44.209 C 156.330 40.856,158.717 39.009,160.521 40.771 M62.759 42.998 C 65.652 43.303,68.000 45.115,68.000 47.042 C 68.000 49.544,65.841 51.578,64.177 50.644 C 63.753 50.406,63.650 50.190,63.327 48.875 C 62.917 47.199,59.897 46.628,56.500 47.583 C 55.685 47.813,54.882 48.000,54.715 48.000 C 54.548 48.000,54.150 48.151,53.831 48.336 C 53.511 48.521,52.996 48.789,52.686 48.931 C 49.759 50.272,48.875 52.617,50.605 54.451 C 51.278 55.165,52.469 55.998,52.817 55.999 C 52.946 56.000,53.508 56.216,54.067 56.479 C 54.626 56.743,55.412 57.013,55.813 57.081 C 56.214 57.148,56.784 57.345,57.078 57.519 C 57.372 57.693,58.054 57.916,58.593 58.016 C 59.132 58.116,59.838 58.332,60.162 58.498 C 60.487 58.663,61.051 58.880,61.418 58.979 C 65.667 60.128,67.932 63.772,66.334 66.889 C 65.355 68.801,61.026 72.694,59.437 73.093 C 59.204 73.152,58.926 73.305,58.818 73.435 C 58.711 73.564,58.202 73.791,57.687 73.938 C 57.171 74.086,56.675 74.266,56.583 74.338 C 55.139 75.473,47.982 75.982,45.667 75.115 C 43.221 74.199,42.655 73.118,43.737 71.426 C 44.557 70.144,45.058 70.009,46.963 70.553 C 49.674 71.328,50.754 71.301,53.917 70.380 C 59.232 68.833,63.163 65.394,60.981 64.201 C 60.696 64.044,60.215 63.755,59.912 63.556 C 59.610 63.358,58.961 63.113,58.472 63.011 C 57.982 62.910,57.357 62.679,57.082 62.498 C 56.808 62.317,56.396 62.167,56.167 62.164 C 55.938 62.162,55.225 61.968,54.583 61.733 C 53.942 61.499,53.136 61.238,52.794 61.153 C 45.996 59.475,42.316 52.790,45.753 48.364 C 47.151 46.564,50.447 44.546,53.083 43.877 C 53.633 43.737,54.306 43.510,54.578 43.372 C 55.505 42.901,59.921 42.699,62.759 42.998 M227.049 51.312 C 227.632 51.672,228.230 52.294,228.708 53.036 C 229.286 53.932,229.017 57.494,228.340 57.912 C 228.250 57.968,228.047 58.284,227.891 58.615 C 227.217 60.034,223.027 63.545,220.221 65.041 C 218.128 66.157,219.972 68.693,222.703 68.455 C 224.569 68.292,226.059 67.746,229.075 66.122 C 229.377 65.959,230.300 65.160,231.127 64.346 C 233.017 62.484,233.335 62.271,234.003 62.417 C 234.860 62.606,235.183 64.168,234.519 64.914 C 234.355 65.099,234.119 65.512,233.995 65.833 C 233.710 66.571,230.798 69.489,229.943 69.894 C 229.592 70.060,229.168 70.332,229.003 70.497 C 228.837 70.663,228.338 70.981,227.893 71.205 C 227.448 71.428,226.933 71.689,226.750 71.785 C 224.486 72.962,220.323 73.466,218.786 72.750 C 216.980 71.908,215.282 70.430,215.053 69.500 C 214.997 69.271,214.758 68.671,214.522 68.167 C 213.971 66.987,213.860 62.001,214.363 61.076 C 214.515 60.797,214.758 60.110,214.904 59.551 C 215.049 58.991,215.392 58.105,215.667 57.583 C 215.942 57.060,216.167 56.528,216.167 56.400 C 216.167 56.272,216.227 56.167,216.300 56.167 C 216.373 56.167,216.637 55.845,216.885 55.453 C 218.078 53.565,221.011 51.301,222.667 50.991 C 223.975 50.746,226.423 50.925,227.049 51.312 M290.049 52.979 C 290.343 53.161,290.957 53.687,291.414 54.147 C 291.871 54.607,292.421 55.028,292.636 55.082 C 292.852 55.136,293.305 55.355,293.645 55.569 C 293.984 55.784,294.671 56.013,295.172 56.079 C 295.673 56.145,296.421 56.355,296.833 56.545 C 298.078 57.119,301.446 57.161,302.667 56.618 C 303.171 56.393,303.840 56.154,304.155 56.085 C 304.469 56.017,305.077 55.744,305.506 55.480 C 305.936 55.216,306.343 55.000,306.412 55.000 C 306.481 55.000,306.998 54.652,307.560 54.226 C 308.849 53.251,310.069 52.682,311.149 52.554 C 312.580 52.385,316.048 53.822,316.828 54.909 C 316.963 55.097,317.431 55.625,317.869 56.083 L 318.665 56.917 320.222 56.973 C 321.463 57.019,322.030 56.956,323.014 56.662 C 323.694 56.460,324.850 56.197,325.583 56.079 C 327.626 55.748,329.124 55.120,329.927 54.257 C 331.049 53.050,333.156 53.019,333.767 54.200 C 334.124 54.890,334.017 57.583,333.590 58.667 C 333.427 59.079,333.221 59.942,333.131 60.583 C 333.041 61.225,332.857 62.087,332.723 62.500 C 332.112 64.371,332.229 65.490,332.925 64.428 C 333.079 64.193,333.290 63.999,333.394 63.998 C 333.498 63.997,333.752 63.753,333.959 63.456 C 334.165 63.159,334.578 62.609,334.875 62.234 C 335.173 61.859,335.724 61.146,336.100 60.651 C 339.357 56.359,343.541 54.577,344.577 57.041 C 344.800 57.572,344.791 57.874,344.470 60.384 C 344.148 62.904,344.778 66.321,345.825 67.739 C 347.356 69.812,349.837 69.817,353.235 67.754 C 355.030 66.664,356.000 66.735,356.000 67.957 C 356.000 69.120,354.250 71.347,352.956 71.829 C 352.308 72.071,351.915 72.256,351.250 72.633 C 350.852 72.859,350.221 72.927,348.159 72.969 L 345.569 73.022 344.389 72.386 C 341.801 70.990,340.533 69.058,339.925 65.583 C 339.764 64.667,339.610 63.835,339.582 63.735 C 339.469 63.331,338.475 63.704,338.028 64.319 C 337.783 64.655,337.488 65.039,337.371 65.173 C 336.870 65.748,335.000 68.363,335.000 68.488 C 335.000 68.564,334.887 68.720,334.748 68.835 C 334.466 69.069,333.000 71.230,333.000 71.412 C 333.000 71.550,332.028 72.957,331.667 73.342 C 330.744 74.326,328.887 74.183,327.836 73.047 L 327.125 72.280 327.213 70.598 C 327.268 69.545,327.424 68.574,327.630 68.000 C 327.845 67.403,327.998 66.414,328.068 65.167 C 328.128 64.112,328.298 62.602,328.446 61.810 C 328.808 59.882,328.409 59.335,327.138 60.015 C 325.484 60.900,321.640 61.519,319.379 61.263 C 318.303 61.142,318.093 61.393,317.923 63.000 C 317.861 63.596,317.673 64.394,317.505 64.774 C 317.338 65.154,317.147 65.712,317.080 66.014 C 316.806 67.264,314.176 70.229,312.737 70.912 C 312.408 71.068,311.872 71.376,311.546 71.598 C 311.220 71.819,310.787 72.000,310.583 72.000 C 310.379 72.000,310.033 72.138,309.814 72.307 C 308.978 72.952,304.882 73.302,303.947 72.807 C 303.259 72.443,302.180 71.470,302.066 71.110 C 302.003 70.912,301.757 70.450,301.519 70.083 C 301.098 69.434,301.086 69.344,301.085 66.662 L 301.084 63.907 301.639 62.702 C 302.087 61.729,302.165 61.410,302.042 61.041 L 301.890 60.583 299.237 60.481 C 297.777 60.425,296.335 60.321,296.032 60.250 C 295.106 60.034,294.667 60.391,294.667 61.359 C 294.667 62.402,293.934 64.919,293.410 65.676 C 293.185 66.001,293.000 66.341,293.000 66.430 C 293.000 66.617,291.199 68.861,290.615 69.401 C 289.100 70.806,287.346 71.889,286.287 72.074 C 285.940 72.134,285.386 72.344,285.054 72.539 C 283.933 73.201,279.108 73.186,278.392 72.518 C 278.208 72.348,277.866 72.105,277.631 71.979 C 275.303 70.733,274.660 66.261,276.355 63.113 C 276.444 62.946,276.681 62.496,276.879 62.113 C 277.078 61.730,277.580 60.941,277.995 60.359 C 278.410 59.777,278.860 59.140,278.993 58.942 C 279.127 58.745,279.427 58.350,279.660 58.064 C 279.893 57.779,280.271 57.299,280.500 56.999 C 283.224 53.426,287.716 51.535,290.049 52.979 M80.023 55.423 C 78.330 56.848,76.432 61.321,77.238 61.990 C 77.553 62.251,79.036 61.346,79.714 60.479 C 79.917 60.218,80.259 59.778,80.473 59.501 C 82.635 56.698,82.285 53.520,80.023 55.423 M221.882 55.682 C 221.534 56.057,221.127 56.616,220.977 56.924 C 220.826 57.232,220.545 57.685,220.352 57.931 C 220.158 58.177,220.000 58.485,220.000 58.616 C 220.000 58.747,219.799 59.265,219.553 59.766 C 218.702 61.506,219.621 61.552,221.667 59.871 C 224.739 57.347,225.479 55.022,223.215 55.005 C 222.605 55.001,222.431 55.089,221.882 55.682 M311.243 57.171 C 308.570 58.164,306.461 61.802,305.719 66.698 C 305.400 68.799,306.494 69.598,308.761 68.921 C 309.741 68.628,311.665 66.979,312.012 66.133 C 312.136 65.831,312.409 65.329,312.619 65.018 C 312.829 64.708,313.000 64.279,313.000 64.066 C 313.000 63.853,313.152 63.295,313.337 62.825 C 313.709 61.879,313.937 59.857,313.771 58.972 C 313.605 58.085,311.951 56.907,311.243 57.171 M102.833 57.894 C 101.324 59.091,100.491 60.336,99.818 62.401 C 99.641 62.943,99.418 63.481,99.321 63.598 C 99.055 63.919,98.638 66.993,98.759 67.750 C 99.003 69.280,100.100 69.621,101.971 68.750 C 103.733 67.930,105.793 65.055,106.092 62.998 C 106.152 62.586,106.385 61.652,106.609 60.922 C 107.474 58.110,105.031 56.151,102.833 57.894 M285.750 57.707 C 285.279 58.186,284.569 59.022,283.535 60.315 C 283.287 60.626,282.987 60.979,282.870 61.100 C 282.639 61.338,281.643 63.030,281.137 64.043 C 279.656 67.010,280.601 69.598,283.031 69.232 C 288.989 68.336,293.085 59.517,288.250 57.997 C 287.883 57.881,287.384 57.647,287.141 57.477 C 286.557 57.067,286.346 57.102,285.750 57.707 " stroke="none" fill="#041c44" fill-rule="evenodd"></path></svg>